<svg viewBox="0 0 80 80" width="80" height="80" xmlns="http://www.w3.org/2000/svg"><defs><linearGradient x1="6.116%" y1="6.905%" x2="95.02%" y2="91.749%" id="a"><stop stop-color="#FFF" stop-opacity=".7" offset="0%"/><stop stop-color="#FFF" stop-opacity=".5" offset="100%"/></linearGradient><linearGradient x1="1.879%" y1="40.27%" x2="108.418%" y2="40.27%" id="b"><stop stop-color="#FFF" stop-opacity=".7" offset="0%"/><stop stop-color="#FFF" stop-opacity=".5" offset="100%"/></linearGradient><radialGradient cx="-19.513%" cy="89.587%" fx="-19.513%" fy="89.587%" r="140.505%" gradientTransform="matrix(.8506 -.46434 .4525 .89863 -.435 0)" id="c"><stop stop-color="#FFF" stop-opacity=".5" offset="0%"/><stop stop-color="#FFF" stop-opacity=".7" offset="100%"/></radialGradient></defs><g fill="none" fill-rule="evenodd"><path d="M13.099 44.619h2.363V42.89h-2.717l-.02-.106v-6.804h-.919c-.417-5.15-.26-10.997 1.03-17.21.961-5.794 4.336-11.292 9.824-14.903C28.148.256 34.596-.768 40.44.553c21.349 3.88 33.944 17.976 33.944 17.976a19.712 19.712 0 0 1 2.112 2.615c5.845 8.543 4.171 19.998-3.484 27.167C56.85 64.078 42.444 67.554 42.444 67.554c-8.89 2.48-18.55-.566-23.79-8.193a21.979 21.979 0 0 1-1.646-2.91c-.029-.043-2.319-4.57-3.91-11.832zm5.572 0V35.98h-1.725v8.638h1.725zm5.09 0v-6.91h2.146v-1.716h-6.018v1.716h2.147v6.91h1.724zm6.596 0v-6.91h2.147v-1.716h-6.018v1.716h2.147v6.91h1.724zm3.45-8.638v8.638h4.462V42.89h-2.737v-6.91h-1.725zm10.408 8.638V42.89h-2.738v-1.727h2.268v-1.728h-2.268V37.71h2.593V35.98h-4.317v8.638h4.462zm5.765.12c-5.934 0-5.934-8.903 0-8.903s5.934 8.904 0 8.904zm7.791-4.82l4.366 4.881h.459v-8.807h-1.737v4.88L56.505 35.8h-.458v8.819h1.724v-4.7zM69 44.62V42.89h-2.738v-1.727h2.268v-1.728h-2.268V37.71h2.593V35.98h-4.317v8.638H69zm-19.02-1.667c3.45 0 3.45-5.34 0-5.34s-3.45 5.34 0 5.34z" fill="url(#a)"/><path d="M61.479 35.993h-.62v4.88L56.505 35.8h-.458v8.819h1.724v-4.7l4.366 4.881h.459v-5.51c1.056 3.465 1.352 5.677 1.352 5.677.168 1 .252 2.001.252 3.028 0 9.354-7.295 17.14-16.881 18.681-20.6 3.812-33.428-.73-33.428-.73C5.813 63.378 0 56.295 0 47.941c0-1.027.084-2.027.252-3 0-.082 2.291-16.897 16.518-30.415C20.515 10.633 25.993 8.2 32.086 8.2s11.571 2.46 15.344 6.353c7.6 7.222 11.792 15.389 14.049 21.44zM11 35.981v8.638h4.462V42.89h-2.737v-6.91H11zm7.67 8.638V35.98h-1.724v8.638h1.725zm5.09 0v-6.91h2.147v-1.716h-6.018v1.716h2.147v6.91h1.724zm6.597 0v-6.91h2.147v-1.716h-6.018v1.716h2.147v6.91h1.724zm3.45-8.638v8.638h4.462V42.89h-2.737v-6.91h-1.725zm10.408 8.638V42.89h-2.738v-1.727h2.268v-1.728h-2.268V37.71h2.593V35.98h-4.317v8.638h4.462zm5.765.12c-5.934 0-5.934-8.903 0-8.903s5.934 8.904 0 8.904zm0-1.787c3.45 0 3.45-5.34 0-5.34s-3.45 5.34 0 5.34z" fill="url(#b)"/><path d="M11.87 44.619h3.592V42.89h-2.737v-6.91h-.389c.377-1.356.901-2.697 1.578-4.002 2.745-5.287 7.506-8.939 12.772-10.465 18.989-6.24 35.597-.517 35.597-.517.98.3 1.96.68 2.913 1.144C73.85 26.42 77.743 36.284 74.86 45.36c-5.798 19.648-15.797 28.75-15.797 28.75-6.021 5.859-15.208 7.712-22.938 3.897a18.342 18.342 0 0 1-2.66-1.581c-.084-.055-14.592-9.701-20.642-28.232a19.412 19.412 0 0 1-.953-3.574zm6.8 0V35.98h-1.724v8.638h1.725zm5.09 0v-6.91h2.147v-1.716h-6.018v1.716h2.147v6.91h1.724zm6.597 0v-6.91h2.147v-1.716h-6.018v1.716h2.147v6.91h1.724zm3.45-8.638v8.638h4.462V42.89h-2.737v-6.91h-1.725zm10.408 8.638V42.89h-2.738v-1.727h2.268v-1.728h-2.268V37.71h2.593V35.98h-4.317v8.638h4.462zm5.765.12c-5.934 0-5.934-8.903 0-8.903s5.934 8.904 0 8.904zm7.791-4.82l4.366 4.881h.459v-8.807h-1.737v4.88L56.505 35.8h-.458v8.819h1.724v-4.7zM69 44.62V42.89h-2.738v-1.727h2.268v-1.728h-2.268V37.71h2.593V35.98h-4.317v8.638H69zm-19.02-1.667c3.45 0 3.45-5.34 0-5.34s-3.45 5.34 0 5.34z" fill="url(#c)" opacity=".9"/></g></svg>