<svg viewBox="0 0 48 48" width="48" height="48" xmlns="http://www.w3.org/2000/svg"><path d="M38.035 16.933a11.737 11.737 0 0 1-2.731 2.718c.012.246.019.495.019.742 0 1.14-.138 2.309-.4 3.466-.742 3.292-2.525 6.523-5.271 8.925-2.722 2.38-6.39 3.944-10.927 3.944-3.293 0-6.359-.95-8.94-2.578.459.052.917.079 1.389.079 2.702 0 5.182-.893 7.167-2.4.026-.02.012-.061-.021-.062a5.832 5.832 0 0 1-5.333-3.932.032.032 0 0 1 .036-.042c.343.062.692.097 1.046.097.531 0 1.05-.075 1.54-.203-1.965-.39-3.55-1.76-4.285-3.551-.297-.723-.379-1.849-.393-2.1-.002-.025.023-.038.044-.027.74.396 1.58.64 2.47.688.036.001.052-.046.022-.066-1.507-1.039-2.493-2.762-2.493-4.707 0-1.035.283-2.008.766-2.847a.032.032 0 0 1 .053-.005 16.659 16.659 0 0 0 11.992 5.964 5.748 5.748 0 0 1-.15-1.309c0-3.17 2.614-5.74 5.831-5.74 1.68 0 3.197.697 4.258 1.812a11.758 11.758 0 0 0 3.496-1.276c.073-.04.16.03.13.108a5.77 5.77 0 0 1-2.486 2.95 11.844 11.844 0 0 0 3.063-.782c.084-.034.16.06.108.134M24.002 0C10.745 0 0 10.748 0 24c0 13.254 10.745 24 24.002 24C37.255 48 48 37.255 48 24 48 10.748 37.255 0 24.002 0" fill="#00B6B9" fill-rule="evenodd"/></svg>