<svg viewBox="0 0 48 48" width="48" height="48" xmlns="http://www.w3.org/2000/svg"><path d="M24 48C10.745 48 0 37.255 0 24S10.745 0 24 0s24 10.745 24 24-10.745 24-24 24zm6.452-38.4H17.547c-4.382 0-7.947 3.565-7.947 7.947v12.905c0 4.382 3.565 7.948 7.947 7.948h12.905c4.382 0 7.948-3.565 7.948-7.948V17.547c0-4.382-3.566-7.947-7.948-7.947zm5.392 20.852a5.399 5.399 0 0 1-5.392 5.392H17.547a5.399 5.399 0 0 1-5.392-5.392V17.547a5.399 5.399 0 0 1 5.392-5.392h12.905a5.399 5.399 0 0 1 5.392 5.392v12.905zM24 16.579c-4.092 0-7.421 3.33-7.421 7.421 0 4.092 3.329 7.42 7.42 7.42 4.093 0 7.421-3.327 7.421-7.42 0-4.092-3.328-7.42-7.42-7.42zm0 12.286A4.871 4.871 0 0 1 19.134 24 4.871 4.871 0 0 1 24 19.134 4.871 4.871 0 0 1 28.866 24 4.872 4.872 0 0 1 24 28.865zm7.732-14.453c-.492 0-.976.2-1.324.549-.351.351-.55.828-.55 1.325 0 .493.201.976.55 1.325.352.35.828.548 1.324.55.493 0 .976-.202 1.325-.55.35-.352.547-.828.548-1.325 0-.494-.199-.978-.548-1.325a1.882 1.882 0 0 0-1.325-.549z" fill="#3726af" fill-rule="evenodd"/></svg>