<svg width="48" height="48" viewBox="0 0 48 48" xmlns="http://www.w3.org/2000/svg"><path d="M24.002 0C37.255 0 48 10.748 48 24c0 13.254-10.745 24-23.998 24C10.745 48 0 37.255 0 24 0 10.748 10.745 0 24.002 0zM35.79 17.215l-7.28 7.285 7.28 7.285c.131-.277.211-.583.211-.91v-12.75c0-.327-.08-.633-.211-.91zM33.89 16H14.109c-.324 0-.628.08-.903.213l9.303 9.325a2.1 2.1 0 0 0 2.982 0l9.303-9.325a2.072 2.072 0 0 0-.903-.213zm-21.68 1.215a2.113 2.113 0 0 0-.211.91v12.75c0 .327.08.633.211.91l7.28-7.285-7.28-7.285zm15.305 8.287l-1.03 1.037a3.501 3.501 0 0 1-4.972 0l-1.03-1.037-7.278 7.285c.275.133.579.213.903.213h19.782c.324 0 .628-.08.903-.213l-7.278-7.285z" fill="#3726AF" fill-rule="evenodd"/></svg>