<svg width="48" height="48" viewBox="0 0 48 48" xmlns="http://www.w3.org/2000/svg"><path d="M36.078 26.916a5.943 5.943 0 0 1-5.943 5.943H17.867a5.943 5.943 0 0 1-5.943-5.943v-5.827a5.943 5.943 0 0 1 5.943-5.943h12.268a5.943 5.943 0 0 1 5.943 5.943v5.827zM24 0C37.255 0 48 10.744 48 23.999 48 37.253 37.255 48 24 48S0 37.253 0 23.999C0 10.744 10.745 0 24 0zm4.908 24.056a.404.404 0 0 0 .001-.711l-8.07-4.393a.405.405 0 0 0-.597.356l.003 8.75c0 .306.328.5.597.355l8.066-4.357z" fill="#3726AF" fill-rule="evenodd"/></svg>