<svg viewBox="0 0 24 24" width="24" height="24" xmlns="http://www.w3.org/2000/svg"><g fill="none" fill-rule="evenodd"><path d="M14.882.354c6.433 1.592 10.355 8.095 8.764 14.528-1.592 6.432-8.096 10.356-14.528 8.763C2.686 22.054-1.238 15.55.355 9.118 1.946 2.684 8.45-1.238 14.882.354z" fill="#E62E15"/><path d="M6.631 6.39l-.824-2.538L4.98 6.39H2.31l2.16 1.57-.823 2.54 2.16-1.57 2.158 1.57-.824-2.54L9.3 6.39H6.63zm6.133-3.864l-.561.677-.815-.324.468.741-.561.677.85-.218.47.743.057-.878.851-.216-.814-.324.055-.878zm1.815 4.024l.133.868.403-.783.866.14-.62-.622.4-.782-.784.398-.618-.622.134.867-.783.397.869.14zm1.43 3.218h-.879l-.269-.836-.273.836h-.878l.71.516-.273.835.712-.516.71.517-.27-.836.71-.516zm-3.25 1.845l-.562.677-.816-.326.467.743-.561.676.853-.217.47.743.055-.877.853-.217-.817-.326.057-.876z" fill="#FED600"/></g></svg>