<svg viewBox="0 0 24 24" width="24" height="24" xmlns="http://www.w3.org/2000/svg"><g fill="none" fill-rule="evenodd"><path d="M.383 9.117C1.972 2.684 8.463-1.237 14.881.354 21.3 1.945 25.214 8.45 23.626 14.88c-1.589 6.432-8.079 10.355-14.498 8.763C2.71 22.052-1.206 15.548.383 9.117" fill="#FFF"/><path d="M9.128 23.643c.709.175 1.418.284 2.121.329h1.524c2.026-.13 3.961-.776 5.636-1.838H5.595a11.942 11.942 0 0 0 3.533 1.509m-8.17-7.02h22.094c.232-.557.424-1.139.573-1.743l.023-.095H.358c.15.63.352 1.245.6 1.838m22.988-5.513H13.803v1.838h10.136c.05-.618.052-1.232.007-1.838M14.881.354c-.36-.09-.72-.16-1.078-.215v1.786h4.707A11.939 11.939 0 0 0 14.88.354M3.359 20.297h17.295c.535-.56 1.019-1.174 1.442-1.837H1.918c.418.656.9 1.272 1.44 1.837M20.71 3.76h-6.907V5.6h8.328A12.045 12.045 0 0 0 20.71 3.76m2.367 3.675h-9.274v1.837h9.863a12.013 12.013 0 0 0-.589-1.837" fill="#E62E15"/><path d="M13.803.129s-1.112-.24-3.26-.05C8.394.27 6.22 1.258 4.497 2.647l.044.136-.112-.081c-.396.324-.772.674-1.125 1.048h.176l-.258.189.098.304-.259-.187-.103.075c-.241.279-.47.57-.686.872l-.04.055-.155.224.07.215-.143-.103a12.007 12.007 0 0 0-1.62 3.72c-.005.018-.01.036-.013.054h.198l.099-.306.1.306h.318l-.258.187.098.307-.258-.19-.26.19.1-.307-.155-.112a12.018 12.018 0 0 0-.284 3.722h13.734V.129zM.926 12.274l-.258-.189-.26.19.1-.305-.259-.19h.32l.099-.304.1.305h.318l-.258.189.098.304zM2.1 10.882l-.258-.189-.26.19.1-.305-.259-.19h.32l.1-.304.097.305h.32l-.26.189.1.304zm-.075-2.98l.099.304-.26-.19-.258.19.1-.305-.26-.189h.32l.099-.304.1.304h.319l-.26.19zm1.296 4.372l-.259-.189-.258.19.099-.305-.26-.19h.32l.1-.304.098.305h.32l-.258.189.098.304zm-.098-2.92l.098.307-.259-.19-.258.19.099-.307-.26-.187h.32l.1-.306.098.306h.32l-.258.187zm0-2.738l.098.305-.259-.19-.258.19.099-.305-.26-.189h.32l.1-.304.098.304h.32l-.258.19zm9.315-5.544l.1-.304.097.304h.32l-.258.19.099.304-.258-.19-.26.19.099-.305-.258-.189h.319zm0 2.677l.1-.305.097.305h.32l-.258.189.099.304-.258-.187-.26.187.099-.304-.258-.19h.319zm0 2.678l.1-.304.097.304h.32l-.258.19.099.304-.258-.19-.26.19.099-.305-.258-.189h.319zm0 2.74l.1-.306.097.306h.32l-.258.187.099.307-.258-.19-.26.19.099-.307-.258-.187h.319zm-2.393-8.095l.1-.304.097.304h.32l-.26.19.1.304-.258-.19-.26.19.1-.305-.259-.189h.32zM4.493 10.93l-.258-.19-.259.19.099-.305-.26-.189h.32l.1-.304.099.304h.32l-.26.19.099.304zm-.074-2.981l.098.304-.258-.189-.26.19.1-.305-.26-.19h.32l.1-.304.098.304h.32l-.258.19zm.023-2.709l.099.305-.258-.19-.26.19.1-.305-.26-.189h.32l.1-.304.098.304h.32l-.259.19zm1.273 7.034l-.259-.189-.26.19.1-.305-.258-.19h.318l.1-.304.098.305h.32l-.259.189.1.304zm-.1-2.92l.1.307-.259-.19-.26.19.1-.307-.258-.187h.318l.1-.306.098.306h.32l-.259.187zm0-2.738l.1.305-.259-.19-.26.19.1-.305-.258-.189h.318l.1-.304.098.304h.32l-.259.19zm0-2.678l.1.304-.259-.187-.26.187.1-.304-.258-.19h.318l.1-.304.098.305h.32l-.259.189zm1.272 7.02l-.26-.19-.258.19.1-.307-.26-.187h.32l.099-.304.098.304h.32l-.258.187.099.307zm-.076-2.983l.1.304-.259-.189-.26.19.1-.305-.259-.19h.32l.1-.304.097.305h.32l-.259.189zm.025-2.708l.1.304-.261-.187-.258.187.1-.304-.26-.19h.32l.098-.304.1.304h.319l-.258.19zm0-2.765l.1.307-.261-.19-.258.19.1-.307-.26-.187h.32l.098-.305.1.305h.319l-.258.187zm1.271 9.772l-.258-.189-.26.19.1-.305-.259-.19h.32l.099-.304.099.305h.32l-.26.189.1.304zm-.098-2.92l.098.307-.258-.19-.26.19.1-.307-.259-.187h.32l.099-.306.099.306h.32l-.26.187zm0-2.738l.098.305-.258-.19-.26.19.1-.305-.259-.189h.32l.099-.304.099.304h.32l-.26.19zm0-2.678l.098.304-.258-.187-.26.187.1-.304-.259-.19h.32l.099-.304.099.305h.32l-.26.189zm0-2.677l.098.305-.258-.19-.26.19.1-.305-.259-.189h.32L7.85.768l.099.304h.32l-.26.19zm1.271 9.791l-.258-.189-.26.19.1-.305-.259-.19h.32l.1-.304.098.305h.32l-.26.189.1.304zm-.074-2.981l.099.305-.26-.19-.258.19.099-.305-.26-.189h.32l.1-.305.098.305h.32l-.258.189zm.023-2.708l.1.305-.26-.19-.26.19.1-.305-.258-.19h.32l.098-.304.099.305h.32l-.259.189zm0-2.764l.1.306-.26-.189-.26.19.1-.307-.258-.188h.32l.098-.306.099.306h.32L9.23 2.6zm1.272 9.675l-.258-.189-.26.19.1-.305-.259-.19h.32l.1-.304.097.305h.32l-.26.189.1.304zm-.1-2.92l.1.307-.258-.19-.26.19.1-.307-.259-.187h.32l.1-.306.097.306h.32l-.26.187zm0-2.738l.1.305-.258-.19-.26.19.1-.305-.259-.189h.32l.1-.304.097.304h.32l-.26.19zm0-2.678l.1.304-.258-.187-.26.187.1-.304-.259-.19h.32l.1-.304.097.305h.32l-.26.189zm1.274 7.114l-.26-.189-.258.19.098-.305-.259-.19h.32l.1-.304.098.305h.32l-.259.189.1.304zM11.6 8.071l.098.305-.259-.19-.258.19.098-.305-.26-.189h.321l.1-.305.098.305h.32l-.258.189zm.023-2.708l.099.305-.259-.19-.259.19.1-.305-.26-.19h.32l.1-.304.098.305h.32l-.259.189zm0-2.764l.099.306-.259-.189-.259.19.1-.307-.26-.188h.32l.1-.306.098.306h.32l-.259.188zm1.272 9.675l-.258-.189-.26.19.099-.305-.258-.19h.319l.1-.304.097.305h.32l-.258.189.099.304z" fill="#093470"/></g></svg>