<svg width="45" height="68" viewBox="0 0 45 68" xmlns="http://www.w3.org/2000/svg"><g fill-rule="nonzero" fill="none"><path d="M-4-17h54v120H-4z"/><path d="M37.742 21.192c.433.055.846.122 1.238.2 3.115.623 5.458 3.182 5.955 7.297.498 4.116-1.988 7.775-3.418 9.166-1.43 1.391-3.185 1.403-3.77.631-.587-.772-.242-2.35.991-3.691 1.234-1.341 3.216-3.024 3.216-5.475 0-2.452-1.267-4.547-3.216-5.173a7.911 7.911 0 0 0-1.037-.244 3.55 3.55 0 0 1-1.756 1.765c-.177 4.114-.111 7.288.193 9.51.397 2.896.817 5.195 1.84 10.359 1.031 5.203 1.456 7.528 1.86 10.475C40.844 63.361 37.02 68 30.38 68H15.577C9.328 68 5.228 62.517 6.12 56.012c.344-2.513.524-3.484 1.957-10.889.2-1.037.36-1.873.512-2.677.548-2.92.94-5.24 1.23-7.353.308-2.25.375-5.402.198-9.443a3.543 3.543 0 0 1-1.775-1.882c-.837.098-1.497.224-1.98.38-1.949.625-3.216 2.72-3.216 5.172 0 2.45 1.982 4.134 3.216 5.475 1.233 1.34 1.578 2.919.992 3.691-.586.772-2.34.76-3.77-.631-1.431-1.391-3.917-5.05-3.42-9.166.498-4.115 2.841-6.674 5.956-7.297.696-.139 1.457-.241 2.284-.306a3.553 3.553 0 0 1 1.807-1.78 12.909 12.909 0 0 1 6.142-9.35c1.476-.893 2.375-2.456 2.375-4.138V4.35c0-2.512 2.13-4.504 4.66-4.34 2.305.147 4.084 2.128 4.084 4.454v1.354c0 1.683.898 3.245 2.375 4.138a12.908 12.908 0 0 1 6.142 9.35 3.548 3.548 0 0 1 1.853 1.886z" fill="#3726AF" opacity=".6"/></g></svg>