<svg width="44" height="35" viewBox="0 0 44 35" xmlns="http://www.w3.org/2000/svg"><g fill="none" fill-rule="evenodd"><path d="M-5-50h54V70H-5z"/><path d="M9.502 7c.6-2.161 1.725-3.99 3.824-5.358C15.934-.058 19.065 0 22.337 0c3.252 0 6.223-.07 8.82 1.61C33.277 2.98 34.44 4.82 35.075 7H42a2 2 0 0 1 2 2v18a2 2 0 0 1-2 2h-7.225c-.669 1.739-1.754 3.227-3.513 4.383-2.62 1.721-5.63 1.615-8.925 1.615-3.258 0-6.375.129-8.976-1.557-1.796-1.164-2.884-2.673-3.541-4.441H2a2 2 0 0 1-2-2V9a2 2 0 0 1 2-2h7.502z" fill="#3726AF" opacity=".6"/><path d="M22.002 23c1.807 0 2.802.036 3.966-.554 2.207-1.119 2.029-3.145 2.029-5.446 0-2.318.157-4.335-2.075-5.448-1.155-.576-2.195-.552-3.92-.552s-2.846-.02-4.005.563c-2.22 1.116-1.99 3.127-1.99 5.437 0 2.315-.223 4.352 2.005 5.466 1.156.577 2.182.533 3.99.533z" fill="#FFF" opacity=".6"/></g></svg>