<svg viewBox="0 0 24 24" width="24" height="24" xmlns="http://www.w3.org/2000/svg"><g fill="none" fill-rule="evenodd"><path d="M.355 9.118C1.946 2.684 8.45-1.238 14.882.354c6.433 1.592 10.355 8.096 8.764 14.528-1.592 6.432-8.096 10.356-14.529 8.764C2.686 22.054-1.238 15.55.355 9.118" fill="#FFF"/><path d="M16.647 11.291a4.668 4.668 0 0 1-4.224 5.071 4.664 4.664 0 0 1-5.07-4.223 4.667 4.667 0 0 1 9.294-.848" fill="#E62E15"/><path d="M8.01 9.304a2.33 2.33 0 1 0 3.985 2.417 2.328 2.328 0 0 1 3.2-.785c1.1.667 1.452 2.1.784 3.2a4.66 4.66 0 1 1-7.97-4.832" fill="#093470"/><path d="M5.7 5.059l-.568-.392-2.465 3.726.57.393L5.7 5.059zm-1.586 4.33l2.465-3.726-.57-.391-2.465 3.726.57.391zm.309.213l.57.391 2.463-3.726-.569-.392-2.464 3.727zm14.013 6.525l1.14-1.726-.569-.394-1.142 1.726.571.394zm-.75-.12l-1.143 1.726.571.393 1.14-1.727-.569-.392zm2.769-1.003l-.569-.392-1.142 1.726.568.393 1.143-1.727zm-1.892 1.608l-1.141 1.725.568.394 1.143-1.726-.57-.393zm1.059.33l.57.391 1.141-1.725-.57-.39-1.141 1.724zm-1.323 2l.57.391 1.142-1.726-.57-.392-1.142 1.727zm2.156-9.944l-2.462-3.726-.571.39 2.464 3.726.569-.39zm-.444-2.605L18.87 4.667l-.57.392 1.143 1.726.57-.392zm.754 2.393l.568-.393-1.142-1.726-.57.392 1.144 1.727zm-2.511-1.184l-1.14-1.728-.57.393 1.141 1.726.569-.391zm1.322 2l-1.14-1.728-.57.393 1.141 1.726.569-.39zM4.423 14.401l2.464 3.725.569-.393-2.463-3.726-.57.394zm-1.755 1.207l2.464 3.725.569-.39-2.465-3.726-.568.391zm2.018 1.123l.571-.393-1.142-1.726-.57.391 1.141 1.728zm.182.272l1.14 1.725.571-.39-1.142-1.726-.57.391z" fill="#3C3736"/></g></svg>