<svg width="16" height="16" viewBox="0 0 16 16" xmlns="http://www.w3.org/2000/svg"><defs><linearGradient x1="6.116%" y1="6.905%" x2="95.02%" y2="91.749%" id="a"><stop stop-color="#00FFCD" offset="0%"/><stop stop-color="#00D4E4" offset="100%"/></linearGradient><linearGradient x1="1.879%" y1="40.27%" x2="105.235%" y2="40.27%" id="b"><stop stop-color="#B620B4" offset="0%"/><stop stop-color="#7437BC" offset="100%"/></linearGradient><radialGradient cx="-19.513%" cy="89.587%" fx="-19.513%" fy="89.587%" r="140.969%" gradientTransform="matrix(.8478 -.46281 .44911 .89944 -.432 0)" id="c"><stop stop-color="#B620B4" offset="0%"/><stop stop-color="#3726AF" offset="100%"/></radialGradient></defs><g fill="none" fill-rule="evenodd"><path fill="#FFF" fill-rule="nonzero" d="M0 0h16v16H0z"/><path d="M11.474 3.172a2.957 2.957 0 0 0-.316-.393S9.268.665 6.066.083A3.465 3.465 0 0 0 3.4.58a3.336 3.336 0 0 0-1.473 2.236c-.65 3.129.617 5.64.625 5.652.07.15.152.295.247.436.786 1.144 2.235 1.601 3.569 1.23 0 0 2.16-.522 4.585-2.887 1.148-1.076 1.4-2.794.522-4.075z" fill="url(#a)" opacity=".9" transform="translate(2 2)"/><path d="M9.63 7.2a2.73 2.73 0 0 0-.038-.455s-.34-2.53-2.477-4.562a3.199 3.199 0 0 0-2.302-.953c-.914 0-1.736.365-2.298.949C.382 4.207.038 6.729.038 6.74a2.646 2.646 0 0 0-.038.45c0 1.253.872 2.316 2.084 2.701 0 0 1.924.681 5.014.11 1.438-.232 2.532-1.4 2.532-2.803z" fill="url(#b)" opacity=".9" transform="translate(2 2)"/><path d="M9.78 3.321a3.02 3.02 0 0 0-.437-.171s-2.492-.859-5.34.077a3.15 3.15 0 0 0-1.916 1.57 3.002 3.002 0 0 0-.164 2.432c.908 2.78 3.084 4.227 3.097 4.235.126.09.256.167.399.237 1.16.572 2.537.294 3.44-.585 0 0 1.5-1.365 2.37-4.312.433-1.361-.151-2.841-1.45-3.483z" fill="url(#c)" opacity=".9" transform="translate(2 2)"/><path d="M3.65 7.397h.259v1.037h.41v.259H3.65V7.397zM4.8 8.693h-.258V7.397H4.8v1.296zm.764 0h-.259V7.656h-.322V7.4h.903v.257h-.322v1.037zm.99 0h-.26V7.656h-.321V7.4h.903v.257h-.322v1.037zm.517-1.296h.259v1.037h.41v.259h-.669V7.397zm1.561 1.296h-.67V7.397h.649v.26h-.39v.258h.34v.26h-.34v.259h.411v.259zm.865.018c.89 0 .89-1.336 0-1.336s-.89 1.336 0 1.336zm0-.268c.517 0 .517-.801 0-.801s-.517.8 0 .8zm1.169-.455v.705h-.259V7.37h.069l.653.761V7.4h.26V8.72h-.068l-.655-.732zm1.684.705h-.67V7.397h.648v.26h-.389v.258h.34v.26h-.34v.259h.411v.259z" fill="#FFF"/></g></svg>