<?xml version="1.0" standalone="no"?>
<!DOCTYPE svg PUBLIC "-//W3C//DTD SVG 20010904//EN"
 "http://www.w3.org/TR/2001/REC-SVG-20010904/DTD/svg10.dtd">
<svg version="1.0" xmlns="http://www.w3.org/2000/svg"
 width="256.000000pt" height="256.000000pt" viewBox="0 0 256.000000 256.000000"
 preserveAspectRatio="xMidYMid meet">
<metadata>
Created by potrace 1.11, written by Peter Selinger 2001-2013
</metadata>
<g transform="translate(0.000000,256.000000) scale(0.100000,-0.100000)"
fill="#000000" stroke="none">
<path d="M919 2289 c-150 -22 -258 -79 -388 -204 -209 -202 -368 -454 -461
-734 -85 -252 -88 -408 -12 -566 109 -225 295 -338 632 -386 l85 -12 55 -60
c78 -86 230 -209 308 -250 102 -53 172 -71 287 -71 120 -1 184 13 290 64 134
64 250 180 381 381 64 97 165 290 204 389 57 144 109 303 120 370 32 188 -34
384 -175 525 -114 115 -254 173 -498 208 l-98 14 -70 76 c-192 208 -410 293
-660 256z m-509 -988 l0 -110 43 -3 c37 -3 42 -6 42 -28 0 -24 -3 -25 -72 -28
l-73 -3 0 141 0 140 30 0 30 0 0 -109z m190 -31 l0 -140 -30 0 -30 0 0 140 0
140 30 0 30 0 0 -140z m230 110 c0 -28 -3 -30 -35 -30 l-35 0 0 -111 0 -110
-27 3 -28 3 -3 108 -3 107 -29 0 c-27 0 -30 3 -30 30 l0 30 95 0 95 0 0 -30z
m210 0 c0 -28 -3 -30 -35 -30 l-35 0 0 -110 0 -110 -25 0 -25 0 0 110 0 110
-35 0 c-32 0 -35 2 -35 30 l0 30 95 0 95 0 0 -30z m100 -79 l0 -110 43 -3 c37
-3 42 -6 42 -28 0 -24 -3 -25 -72 -28 l-73 -3 0 141 0 140 30 0 30 0 0 -109z
m270 79 c0 -28 -2 -30 -40 -30 -36 0 -40 -2 -40 -25 0 -22 4 -25 35 -25 32 0
35 -2 35 -30 0 -28 -3 -30 -35 -30 -30 0 -35 -3 -35 -24 0 -22 5 -25 43 -28
37 -3 42 -6 42 -28 0 -24 -3 -25 -72 -28 l-73 -3 0 141 0 140 70 0 70 0 0 -30z
m267 10 c87 -52 83 -198 -6 -245 -38 -19 -104 -19 -142 0 -92 48 -91 206 1
252 38 19 110 16 147 -7z m204 -59 l64 -75 3 77 c3 74 4 77 27 77 l25 0 0
-140 c0 -77 -3 -140 -7 -140 -4 0 -38 33 -75 73 l-67 72 -1 -72 0 -73 -30 0
-30 0 0 141 c0 113 3 140 14 137 7 -2 42 -36 77 -77z m319 49 c0 -28 -2 -30
-40 -30 -36 0 -40 -2 -40 -25 0 -22 4 -25 35 -25 32 0 35 -2 35 -30 0 -28 -3
-30 -35 -30 -31 0 -35 -3 -35 -25 0 -23 4 -25 45 -25 43 0 45 -1 45 -30 l0
-31 -72 3 -73 3 -3 124 c-1 69 0 131 2 138 4 9 26 13 71 13 l65 0 0 -30z"/>
<path d="M1564 1346 c-35 -15 -44 -32 -44 -80 0 -71 96 -105 139 -50 27 34 27
84 1 112 -12 12 -25 22 -30 22 -4 0 -14 2 -22 5 -7 2 -27 -2 -44 -9z"/>
</g>
</svg>
