<?xml version="1.0" encoding="UTF-8"?>
<svg width="56px" height="56px" viewBox="0 0 56 56" version="1.1" xmlns="http://www.w3.org/2000/svg" xmlns:xlink="http://www.w3.org/1999/xlink">
    <!-- Generator: Sketch 51.3 (57544) - http://www.bohemiancoding.com/sketch -->
    <title>Littleone Logo</title>
    <desc>Created with Sketch.</desc>
    <defs>
        <linearGradient x1="6.1164856%" y1="6.90460205%" x2="95.0195312%" y2="91.7488098%" id="linearGradient-1">
            <stop stop-color="#00FFCD" offset="0%"></stop>
            <stop stop-color="#00D4E4" offset="100%"></stop>
        </linearGradient>
        <linearGradient x1="1.8793517%" y1="40.2696711%" x2="105.235105%" y2="40.2696711%" id="linearGradient-2">
            <stop stop-color="#B620B4" offset="0%"></stop>
            <stop stop-color="#7437BC" offset="100%"></stop>
        </linearGradient>
        <radialGradient cx="-19.5126488%" cy="89.5874023%" fx="-19.5126488%" fy="89.5874023%" r="140.969043%" gradientTransform="translate(-0.195126,0.895874),scale(0.956386,1.000000),rotate(-27.568870),scale(1.000000,1.014648),translate(0.195126,-0.895874)" id="radialGradient-3">
            <stop stop-color="#B620B4" offset="0%"></stop>
            <stop stop-color="#3726AF" offset="100%"></stop>
        </radialGradient>
    </defs>
    <g id="Page-1" stroke="none" stroke-width="1" fill="none" fill-rule="evenodd">
        <g id="Artboard" transform="translate(-6.000000, -6.000000)">
            <g id="Littleone-Logo" transform="translate(6.000000, 6.000000)">
                <path d="M53.547439,14.8005474 C53.1056632,14.1402311 52.6062644,13.5365133 52.0684504,12.9705279 C52.0684504,12.9705279 43.2521418,3.10351584 28.3085948,0.386785925 C24.2173666,-0.537656892 19.7035703,0.179257946 15.8620414,2.70732606 C12.0205126,5.23539417 9.65797243,9.08409488 8.98570489,13.1403236 C5.95089714,27.7427468 11.8668515,39.4586446 11.9052668,39.5152431 C12.2317967,40.2132918 12.6159496,40.8924742 13.0577254,41.5527905 C16.7263854,46.8919195 23.4874761,49.0237978 29.7107528,47.2881092 C29.7107528,47.2881092 39.7947659,44.854372 51.1080682,33.8176568 C56.4670009,28.7992529 57.6386672,20.7811264 53.547439,14.8005474 Z" id="Mobile_M1_Shape_Green" fill="url(#linearGradient-1)" opacity="0.9"></path>
                <path d="M44.94,33.5966954 C44.94,32.8775687 44.8813061,32.1773665 44.7639182,31.4771642 C44.7639182,31.4771642 43.1791815,19.6683477 33.2012103,10.1872306 C30.5599826,7.46211908 26.7253113,5.74 22.4602177,5.74 C18.1951241,5.74 14.3604528,7.44319469 11.7387897,10.1683062 C1.78038311,19.6304989 0.176081846,31.4014667 0.176081846,31.4582398 C0.0586939486,32.1395177 0,32.83972 0,33.5588466 C0,39.4064817 4.0694471,44.3646707 9.72363082,46.1624873 C9.72363082,46.1624873 18.703805,49.3417841 33.1229517,46.6734457 C39.8336265,45.5947557 44.94,40.1445327 44.94,33.5966954 Z" id="Mobile_M1_Shape_Purple" fill="url(#linearGradient-2)" opacity="0.9"></path>
                <path d="M45.6372927,15.4988482 C44.9707144,15.1745626 44.2845309,14.907504 43.5983473,14.6976722 C43.5983473,14.6976722 31.9724376,10.6917924 18.6800821,15.0601089 C14.9942962,16.1283436 11.6614047,18.6844764 9.74009079,22.3851463 C7.81877687,26.0858163 7.66193492,30.2061498 8.97548627,33.7351392 C13.210219,46.7065596 23.3657354,53.4593285 23.4245512,53.4974797 C24.0127085,53.9171433 24.6204711,54.2795801 25.2870494,54.6038656 C30.6980967,57.2744521 37.1286168,55.9773101 41.3437443,51.8760522 C41.3437443,51.8760522 48.3428164,45.5047957 52.4011019,31.7512749 C54.4204421,25.399094 51.6953131,18.4937202 45.6372927,15.4988482 Z" id="Mobile_M1_Shape_Violet" fill="url(#radialGradient-3)" opacity="0.9"></path>
                <path d="M7.7,25.1868456 L8.90727802,25.1868456 L8.90727802,30.0238926 L10.8237263,30.0238926 L10.8237263,31.2331544 L7.7,31.2331544 L7.7,25.1868456 Z M13.0694323,31.2331544 L11.8621543,31.2331544 L11.8621543,25.1868456 L13.0694323,25.1868456 L13.0694323,31.2331544 Z M16.6321689,31.2331544 L15.4248908,31.2331544 L15.4248908,26.3961074 L13.9221252,26.3961074 L13.9221252,25.195302 L18.1349345,25.195302 L18.1349345,26.3961074 L16.6321689,26.3961074 L16.6321689,31.2331544 Z M21.2502183,31.2331544 L20.0429403,31.2331544 L20.0429403,26.3961074 L18.5401747,26.3961074 L18.5401747,25.195302 L22.752984,25.195302 L22.752984,26.3961074 L21.2502183,26.3961074 L21.2502183,31.2331544 Z M23.6647744,25.1868456 L24.8720524,25.1868456 L24.8720524,30.0238926 L26.7885007,30.0238926 L26.7885007,31.2331544 L23.6647744,31.2331544 L23.6647744,25.1868456 Z M30.950655,31.2331544 L27.8269287,31.2331544 L27.8269287,25.1868456 L30.849345,25.1868456 L30.849345,26.3961074 L29.0342067,26.3961074 L29.0342067,27.6053691 L30.6213974,27.6053691 L30.6213974,28.8146309 L29.0342067,28.8146309 L29.0342067,30.0238926 L30.950655,30.0238926 L30.950655,31.2331544 Z M34.9861718,31.3177181 C39.1398836,31.3177181 39.1398836,25.0853691 34.9861718,25.0853691 C30.83246,25.0853691 30.83246,31.3177181 34.9861718,31.3177181 Z M34.9861718,30.0661745 C37.4007278,30.0661745 37.4007278,26.3284564 34.9861718,26.3284564 C32.5716157,26.3284564 32.5716157,30.0661745 34.9861718,30.0661745 Z M40.4400291,27.9436242 L40.4400291,31.2331544 L39.2327511,31.2331544 L39.2327511,25.06 L39.5535662,25.06 L42.60131,28.6116779 L42.60131,25.195302 L43.8170306,25.195302 L43.8170306,31.36 L43.4962154,31.36 L40.4400291,27.9436242 Z M48.3,31.2331544 L45.1762737,31.2331544 L45.1762737,25.1868456 L48.19869,25.1868456 L48.19869,26.3961074 L46.3835517,26.3961074 L46.3835517,27.6053691 L47.9707424,27.6053691 L47.9707424,28.8146309 L46.3835517,28.8146309 L46.3835517,30.0238926 L48.3,30.0238926 L48.3,31.2331544 Z" id="Littleone" fill="#FFFFFF"></path>
            </g>
        </g>
    </g>
</svg>