<svg width="189" height="12" viewBox="0 0 189 12" xmlns="http://www.w3.org/2000/svg"><defs><linearGradient x1="0%" y1="50%" y2="50%" id="a"><stop stop-color="#49D2E6" offset="0%"/><stop stop-color="#2FD3B8" offset="100%"/></linearGradient></defs><path d="M866 84.392v-11.2h2.592v9.088h5.616v2.112H866zm9.664 0v-11.2h2.592v11.2h-2.592zm7.568 0v-9.088h-3.584v-2.112h9.76v2.112h-3.584v9.088h-2.592zm9.888 0v-9.088h-3.584v-2.112h9.76v2.112h-3.584v9.088h-2.592zm7.568 0v-11.2h2.592v9.088h5.616v2.112h-8.208zm12.24-2.08h6.096v2.08h-8.672v-11.2h8.464v2.08h-5.888v2.432h5.2v2.016h-5.2v2.592zm13.584 2.272c-3.536 0-6.128-2.464-6.128-5.792S922.976 73 926.512 73c3.52 0 6.128 2.448 6.128 5.792s-2.608 5.792-6.128 5.792zm0-2.208c2 0 3.504-1.456 3.504-3.584s-1.504-3.584-3.504-3.584-3.504 1.456-3.504 3.584 1.504 3.584 3.504 3.584zm15.792-9.184h2.56v11.2h-2.128l-5.584-6.8v6.8h-2.56v-11.2h2.144l5.568 6.8v-6.8zm7.792 9.12h6.096v2.08h-8.672v-11.2h8.464v2.08h-5.888v2.432h5.2v2.016h-5.2v2.592zm17.536-9.12c2.992 0 4.864 1.552 4.864 4.064 0 2.496-1.872 4.048-4.864 4.048h-2.256v3.088h-2.592v-11.2h4.848zm-.144 6c1.584 0 2.384-.72 2.384-1.936 0-1.232-.8-1.952-2.384-1.952h-2.112v3.888h2.112zm7.008 5.2v-11.2h2.592v9.088h5.616v2.112h-8.208zm18.032 0l-.992-2.4h-5.2l-.992 2.4h-2.656l4.992-11.2h2.56l5.008 11.2h-2.72zm-5.36-4.368h3.552l-1.776-4.288-1.776 4.288zm11.568 4.368v-9.088h-3.584v-2.112h9.76v2.112h-3.584v9.088h-2.592zm16.032-9.12h-5.872v2.96h5.184v2.08h-5.184v4.08h-2.592v-11.2h8.464v2.08zm7.184 9.312c-3.536 0-6.128-2.464-6.128-5.792s2.592-5.792 6.128-5.792c3.52 0 6.128 2.448 6.128 5.792s-2.608 5.792-6.128 5.792zm0-2.208c2 0 3.504-1.456 3.504-3.584s-1.504-3.584-3.504-3.584-3.504 1.456-3.504 3.584 1.504 3.584 3.504 3.584zm18 2.016h-2.784l-2.16-3.12h-2.384v3.12h-2.592v-11.2h4.848c2.992 0 4.864 1.552 4.864 4.064 0 1.68-.848 2.912-2.304 3.536l2.512 3.6zm-2.832-7.136c0-1.232-.8-1.952-2.384-1.952h-2.112v3.904h2.112c1.584 0 2.384-.736 2.384-1.952zm17.296 7.136h-2.432l-.016-6.72-3.296 5.536h-1.168l-3.28-5.392v6.576h-2.432v-11.2h2.144l4.192 6.96 4.128-6.96h2.128l.032 11.2z" transform="translate(-866 -73)" fill="url(#a)" fill-rule="evenodd"/></svg>