<svg xmlns="http://www.w3.org/2000/svg" width="72" height="72" viewBox="0 0 72 72"><g fill="none" fill-rule="evenodd"><path fill="#565656" d="M71.878 35.94C71.878 16.09 55.788 0 35.94 0 16.09 0 0 16.09 0 35.94c0 19.847 16.09 35.938 35.94 35.938 19.848 0 35.938-16.09 35.938-35.938z"/><g fill="#FFF"><path d="M35.886 18.145a1.533 1.533 0 0 0-1.567.062l-13.782 8.951h-5.094c-.847 0-1.534.687-1.534 1.533v13.434c0 .847.687 1.533 1.534 1.533h5.094l13.782 8.951a1.532 1.532 0 0 0 2.369-1.285V19.493c0-.563-.308-1.08-.802-1.348zm5.069 28.108c.13 0 .26-.024.389-.073 3.511-1.364 5.87-5.576 5.87-10.483 0-4.34-1.912-8.265-4.872-9.999a1.075 1.075 0 0 0-1.086 1.855c2.313 1.356 3.808 4.552 3.808 8.144 0 3.963-1.85 7.45-4.499 8.478a1.075 1.075 0 0 0 .39 2.078z"/><path d="M43.761 50.736c.13 0 .261-.024.389-.073 4.932-1.915 8.377-8.11 8.377-15.065 0-6.256-2.736-11.902-6.97-14.382a1.075 1.075 0 1 0-1.087 1.854c3.588 2.103 5.907 7.02 5.907 12.528 0 6.088-2.88 11.46-7.005 13.06a1.075 1.075 0 0 0 .39 2.078z"/><path d="M46.652 55.009a1.087 1.087 0 0 1-.394-2.1c5.616-2.18 9.538-9.33 9.538-17.387 0-7.263-3.13-13.79-7.976-16.629a1.087 1.087 0 0 1 1.099-1.875c5.497 3.221 9.05 10.484 9.05 18.504 0 8.933-4.493 16.916-10.925 19.413a1.08 1.08 0 0 1-.392.074z"/></g></g></svg>