<svg xmlns="http://www.w3.org/2000/svg" width="72" height="72" viewBox="0 0 72 72"><g fill="none" fill-rule="evenodd"><path fill="#565656" d="M71.878 35.94C71.878 16.09 55.788 0 35.94 0 16.09 0 0 16.09 0 35.94c0 19.847 16.09 35.938 35.94 35.938 19.848 0 35.938-16.09 35.938-35.938z"/><path d="M37.584 18.676a1.533 1.533 0 0 0-1.567.062l-13.782 8.951H17.14c-.847 0-1.534.687-1.534 1.533v13.434c0 .846.687 1.533 1.534 1.533h5.094l13.782 8.951a1.533 1.533 0 0 0 2.369-1.286v-31.83c0-.562-.308-1.08-.802-1.348zm13.903 17.263l4.402-4.402a1.304 1.304 0 0 0-1.844-1.844l-4.402 4.402-4.401-4.402a1.304 1.304 0 0 0-1.844 1.844L47.8 35.94l-4.402 4.402a1.304 1.304 0 0 0 1.844 1.844l4.401-4.402 4.402 4.402a1.3 1.3 0 0 0 1.844 0c.51-.51.51-1.335 0-1.844l-4.402-4.402z" fill="#FFF"/></g></svg>