<svg xmlns="http://www.w3.org/2000/svg" width="110" height="110" viewBox="0 0 110 110"><g fill="none" fill-rule="evenodd"><circle cx="55" cy="55" r="55" fill="#8AE0ED" fill-rule="nonzero"/><path fill="#FFF" d="M78.242 76.495c.418 0 .758.337.758.752 0 .416-.34.753-.758.753H31.758a.756.756 0 0 1-.758-.753V32.753c0-.416.34-.753.758-.753s.758.337.758.753v43.742h45.726zm-41.01-3.68a.755.755 0 0 1-.758-.754V61.523c0-.415.34-.753.758-.753h7.948c.418 0 .758.338.758.753v10.538c0 .417-.34.753-.758.753h-7.948zm.758-1.506h6.432v-9.033H37.99v9.033zm12.884-17.313h7.948c.418 0 .758.337.758.753V72.06c0 .417-.34.753-.758.753h-7.948a.755.755 0 0 1-.758-.753V54.75c0-.416.34-.753.758-.753zm.758 17.313h6.432V55.5h-6.432v15.81zm20.832-24.59c.418 0 .758.338.758.753v24.59c0 .416-.34.752-.758.752h-7.948a.755.755 0 0 1-.758-.753V47.472c0-.415.34-.753.758-.753h7.948zm-7.19 24.59h6.432V48.225h-6.432v23.084zM40.011 53.495a.76.76 0 0 1-.563-.248.749.749 0 0 1 .055-1.063l11.829-10.628a.763.763 0 0 1 .953-.051l5.96 4.29 12.43-12.137h-5.758a.756.756 0 0 1-.758-.753c0-.416.34-.753.758-.753h7.61c.094 0 .18.022.264.054.026.01.048.021.072.033a.82.82 0 0 1 .159.107c.02.017.04.032.056.05a.727.727 0 0 1 .135.2c.004.007.009.012.012.02l.003.004a.752.752 0 0 1 .051.259c0 .01.005.017.005.026v7.557c0 .416-.34.753-.757.753a.756.756 0 0 1-.758-.753V34.7L58.85 47.315a.763.763 0 0 1-.976.073l-5.981-4.306L40.519 53.3a.757.757 0 0 1-.508.195z"/></g></svg>