<svg xmlns="http://www.w3.org/2000/svg" width="110" height="110" viewBox="0 0 110 110"><g fill="none" fill-rule="evenodd"><circle cx="55" cy="55" r="55" fill="#8AE0ED" fill-rule="nonzero"/><path fill="#FFF" d="M78.182 64.602V76.71c-11.39-2.528-18.95 3.351-21.93 6.325V61.872c6.417-9.715 19.013-7.387 21.93-6.691v9.421zm-45.458-7.413v-2.008c1.361-.326 4.826-1.005 8.786-.652a.883.883 0 0 0 .291.058c.04 0 .08-.01.12-.015 4.379.464 9.287 2.224 12.607 7.112V82.91c-3.066-3.012-10.577-8.695-21.804-6.2V57.189zM55.5 46.855c4.85 0 9.309 2.282 12.175 6.158-4.265.649-8.864 2.523-12.223 7.01-3.334-4.455-7.89-6.335-12.133-6.995 2.851-3.836 7.399-6.173 12.181-6.173zm-9.73-11.427c0-5.353 4.353-9.706 9.704-9.706 5.352 0 9.706 4.353 9.706 9.706 0 5.352-4.354 9.704-9.706 9.704-5.351 0-9.704-4.352-9.704-9.704zM31 64.602v13.203a.864.864 0 0 0 1.082.833c14.437-3.799 22.287 6.567 22.614 7.012.167.224.426.35.694.35.02 0 .04-.008.061-.01.021.002.043.01.064.01.27 0 .529-.126.696-.351.08-.11 8.14-10.821 22.613-7.011a.862.862 0 0 0 1.082-.833v-23.29c0-.38-.25-.716-.614-.825-.084-.026-4.407-1.283-9.672-.897-2.257-3.439-5.584-5.876-9.398-6.984 3.935-1.807 6.68-5.775 6.68-10.381C66.901 29.126 61.774 24 55.472 24c-6.3 0-11.428 5.126-11.428 11.428 0 4.623 2.766 8.606 6.728 10.403a17.076 17.076 0 0 0-9.394 6.972c-5.309-.41-9.681.86-9.765.887a.863.863 0 0 0-.614.825v10.087z"/><rect width="7.4" height="4.4" x="27.8" y="57.8" fill="#8AE0ED" fill-rule="nonzero" stroke="#FFF" stroke-width="1.6" rx="2.2"/><rect width="7.4" height="4.4" x="74.8" y="57.8" fill="#8AE0ED" fill-rule="nonzero" stroke="#FFF" stroke-width="1.6" rx="2.2"/></g></svg>