<svg xmlns="http://www.w3.org/2000/svg" width="110" height="110" viewBox="0 0 110 110"><g fill="none" fill-rule="evenodd"><circle cx="55" cy="55" r="55" fill="#8AE0ED" fill-rule="nonzero"/><path fill="#FFF" d="M70.656 34.01H40.345v-2.56c0-1.72 1.412-3.118 3.15-3.118h24.01c1.737 0 3.151 1.398 3.151 3.118v2.561zM40.345 72.766h30.311V35.341H40.345v37.425zm30.311 5.784c0 1.72-1.414 3.119-3.15 3.119H43.494c-1.737 0-3.15-1.4-3.15-3.119v-4.453h30.312v4.453zM67.506 27C69.984 27 72 28.995 72 31.448V78.55c0 2.453-2.016 4.45-4.494 4.45H43.494C41.017 83 39 81.002 39 78.55V31.449c0-2.453 2.017-4.45 4.494-4.45h24.012zm-9.495 3.473H52.99a.67.67 0 0 0-.672.665c0 .368.301.666.672.666h5.021a.67.67 0 0 0 .672-.666.67.67 0 0 0-.672-.665zM55.5 77.02a.97.97 0 0 1 .976.965.972.972 0 0 1-.976.964.97.97 0 0 1-.973-.964.97.97 0 0 1 .973-.965zm0 3.26c1.279 0 2.32-1.03 2.32-2.295 0-1.266-1.041-2.295-2.32-2.295a2.307 2.307 0 0 0-2.316 2.295A2.308 2.308 0 0 0 55.5 80.28zm-9.397-15.705a.76.76 0 0 0 .764-.756v-18.14a.76.76 0 0 0-.764-.756.76.76 0 0 0-.763.756v18.14a.76.76 0 0 0 .763.756zm6.108 0a.76.76 0 0 0 .763-.756V51.725a.76.76 0 0 0-.763-.756.76.76 0 0 0-.764.756v12.093a.76.76 0 0 0 .764.756zm6.108 0a.76.76 0 0 0 .763-.756v-9.07a.76.76 0 0 0-.763-.756.76.76 0 0 0-.764.756v9.07a.76.76 0 0 0 .764.756zm6.107 0a.76.76 0 0 0 .764-.756v-18.14a.76.76 0 0 0-.764-.756.76.76 0 0 0-.763.756v18.14a.76.76 0 0 0 .763.756z"/></g></svg>