<svg xmlns="http://www.w3.org/2000/svg" width="110" height="110" viewBox="0 0 110 110"><g fill="none" fill-rule="evenodd"><circle cx="55" cy="55" r="55" fill="#8AE0ED" fill-rule="nonzero"/><path fill="#FFF" d="M62.063 28.491c-2.582 0-4.682 2.096-4.682 4.671V55.03a.745.745 0 0 1-.462.69c-5.04 2.085-8.297 6.946-8.297 12.385 0 7.39 6.029 13.405 13.441 13.405 7.412 0 13.442-6.014 13.442-13.405 0-5.44-3.257-10.3-8.298-12.386a.745.745 0 0 1-.461-.689V33.162c0-2.575-2.1-4.67-4.683-4.67m0 54.508c-8.237 0-14.936-6.683-14.936-14.896a14.852 14.852 0 0 1 8.759-13.563V33.162c0-3.397 2.77-6.162 6.177-6.162 3.407 0 6.178 2.765 6.178 6.162v21.38A14.853 14.853 0 0 1 77 68.103C77 76.317 70.3 83 62.063 83zm-1.18-41.58h2.36v17.986c0 .35.244.653.587.729 3.72.816 6.42 4.167 6.42 7.968 0 4.503-3.672 8.165-8.187 8.165-4.515 0-8.187-3.662-8.187-8.165 0-3.8 2.7-7.152 6.42-7.968a.747.747 0 0 0 .587-.729V41.42zm1.18 36.34c5.34 0 9.682-4.332 9.682-9.657 0-4.293-2.911-8.101-7.007-9.276V40.674a.747.747 0 0 0-.748-.746h-3.854a.747.747 0 0 0-.748.746v18.153c-4.095 1.175-7.008 4.983-7.008 9.276 0 5.325 4.344 9.656 9.683 9.656zM38.891 33.5h-4.143a.747.747 0 0 1-.748-.746c0-.412.335-.746.748-.746h4.143a.747.747 0 0 1 0 1.491zm0 8.61h-4.143a.747.747 0 0 1-.748-.746c0-.411.335-.745.748-.745h4.143c.413 0 .748.334.748.745a.747.747 0 0 1-.748.746zm0 8.61h-4.143a.747.747 0 0 1-.748-.745c0-.412.335-.746.748-.746h4.143a.747.747 0 0 1 0 1.491zm0 8.611h-4.143a.747.747 0 0 1-.748-.745c0-.412.335-.746.748-.746h4.143a.747.747 0 0 1 0 1.491zm0 8.61h-4.143a.747.747 0 0 1-.748-.745c0-.412.335-.746.748-.746h4.143a.747.747 0 0 1 0 1.491zm0 8.611h-4.143a.747.747 0 0 1-.748-.745c0-.412.335-.746.748-.746h4.143a.747.747 0 0 1 0 1.491z"/></g></svg>