<svg xmlns="http://www.w3.org/2000/svg" width="110" height="110" viewBox="0 0 110 110"><g fill="none" fill-rule="evenodd"><circle cx="55" cy="55" r="55" fill="#8AE0ED" fill-rule="nonzero"/><path fill="#FFF" d="M67.448 67.209c.811 1.404.829 3.118.05 4.584a.72.72 0 0 0 .01.7l1.997 3.461c.606 1.049.23 2.403-.837 3.02-1.068.616-2.428.264-3.034-.785l-1.998-3.46a.72.72 0 0 0-.602-.359c-1.658-.057-3.134-.93-3.945-2.335-.018-.03-.046-.048-.067-.074l8.395-4.847c.013.032.014.065.031.095m-12.083 4.428l-1.294-2.241 13.6-7.852 1.294 2.24a.667.667 0 0 1-.252.908l-12.435 7.18a.668.668 0 0 1-.913-.235m-5.137-3.553l-1.604-2.78L66.852 54.78l1.605 2.78c.443.767.168 1.759-.614 2.21l-15.395 8.888c-.78.45-1.777.193-2.22-.574M33.42 35.7l15.395-8.888c.781-.451 1.778-.194 2.22.574l15.093 26.14L47.9 64.05 32.807 37.91c-.443-.768-.167-1.76.613-2.21m36.823 27.347c.581 1.007.22 2.308-.805 2.9l-.778.45c.022.026.05.044.067.073.993 1.72 1.078 3.792.25 5.618l1.806 3.129c1.005 1.74.381 3.99-1.39 5.012-1.772 1.023-4.032.438-5.037-1.302l-1.806-3.129c-1.996-.195-3.747-1.304-4.74-3.025-.017-.03-.018-.062-.032-.094l-.776.448c-1.025.592-2.334.255-2.915-.752l-1.316-2.28c-1.41.57-3.052.059-3.821-1.273L31.528 38.647c-.842-1.459-.319-3.345 1.167-4.203l15.395-8.888c1.486-.858 3.38-.368 4.223 1.091l17.421 30.175c.77 1.332.392 3.01-.807 3.946l1.316 2.28zM49.789 36.554l3.94-2.275a.731.731 0 0 0 .277-.997.731.731 0 0 0-1.002-.258l-3.94 2.275a.731.731 0 0 0-.277.996c.2.347.649.462 1.002.259zm5.35 9.267l3.94-2.274a.731.731 0 0 0 .277-.998.731.731 0 0 0-1.001-.258l-3.94 2.275a.731.731 0 0 0-.278.997.732.732 0 0 0 1.002.258zm-2.675-4.634l3.94-2.275a.731.731 0 0 0 .277-.997.731.731 0 0 0-1.001-.258l-3.94 2.275a.731.731 0 0 0-.278.996c.2.348.649.463 1.002.26zm5.35 9.269l3.941-2.275a.731.731 0 0 0 .277-.997.731.731 0 0 0-1.001-.259L57.09 49.2a.731.731 0 0 0-.278.997c.2.347.649.462 1.002.259z"/></g></svg>